{
    "asset" : {
        "generator" : "Khronos Blender glTF 2.0 I/O",
        "version" : "2.0"
    },
    "scene" : 0,
    "scenes" : [
        {
            "name" : "Scene",
            "nodes" : [
                0,
                1,
                2,
                3,
                4,
                5,
                6,
                7
            ]
        }
    ],
    "nodes" : [
        {
            "mesh" : 0,
            "name" : "bloc.000",
            "rotation" : [
                0,
                0.2164396345615387,
                0,
                0.9762960076332092
            ],
            "translation" : [
                -1,
                0.30000007152557373,
                -1
            ]
        },
        {
            "mesh" : 1,
            "name" : "suzanne.000",
            "rotation" : [
                -0.3237420916557312,
                -0.21187053620815277,
                0.013085674494504929,
                0.9220253229141235
            ],
            "translation" : [
                1.2168545722961426,
                0.25304898619651794,
                -1.3599159717559814
            ]
        },
        {
            "mesh" : 2,
            "name" : "lamp.000",
            "translation" : [
                0,
                3,
                0
            ]
        },
        {
            "mesh" : 3,
            "name" : "cornellBox.000"
        },
        {
            "name" : "light.000",
            "translation" : [
                0,
                2.983642339706421,
                0
            ]
        },
        {
            "name" : "Camera",
            "rotation" : [
                0.7071068286895752,
                0,
                0,
                0.7071068286895752
            ],
            "translation" : [
                0,
                1.5,
                4.5
            ]
        },
        {
            "name" : "IrradianceVolume",
            "translation" : [
                0,
                1.5,
                0
            ]
        },
        {
            "name" : "ReflectionCubemap",
            "translation" : [
                0,
                1.5,
                0
            ]
        }
    ],
    "materials" : [
        {
            "name" : "bloc.000",
            "pbrMetallicRoughness" : {
                "baseColorTexture" : {
                    "index" : 0,
                    "texCoord" : 0
                },
                "metallicFactor" : 0,
                "roughnessFactor" : 1
            }
        },
        {
            "name" : "suzanne.000",
            "pbrMetallicRoughness" : {
                "baseColorFactor" : [
                    0.800000011920929,
                    0.800000011920929,
                    0.800000011920929,
                    1
                ],
                "metallicFactor" : 0,
                "roughnessFactor" : 0.5
            }
        },
        {
            "emissiveFactor" : [
                1,
                1,
                1
            ],
            "name" : "light.000",
            "pbrMetallicRoughness" : {}
        },
        {
            "name" : "cornellBox.default.000",
            "pbrMetallicRoughness" : {
                "baseColorFactor" : [
                    0.800000011920929,
                    0.800000011920929,
                    0.800000011920929,
                    1
                ],
                "metallicFactor" : 0,
                "roughnessFactor" : 1
            }
        },
        {
            "name" : "cornellBox.ground.000",
            "pbrMetallicRoughness" : {
                "baseColorTexture" : {
                    "index" : 1,
                    "texCoord" : 0
                },
                "metallicFactor" : 0,
                "roughnessFactor" : 1
            }
        },
        {
            "name" : "cornellBox.red.000",
            "pbrMetallicRoughness" : {
                "baseColorFactor" : [
                    0.9551045298576355,
                    0.02117280475795269,
                    0.02429533191025257,
                    1
                ],
                "metallicFactor" : 0,
                "roughnessFactor" : 1
            }
        },
        {
            "name" : "cornellBox.green.000",
            "pbrMetallicRoughness" : {
                "baseColorFactor" : [
                    0.10694030672311783,
                    0.9551045298576355,
                    0.035699669271707535,
                    1
                ],
                "metallicFactor" : 0,
                "roughnessFactor" : 1
            }
        }
    ],
    "meshes" : [
        {
            "name" : "bloc.000",
            "primitives" : [
                {
                    "attributes" : {
                        "POSITION" : 0,
                        "NORMAL" : 1,
                        "TEXCOORD_0" : 2,
                        "TEXCOORD_1" : 3
                    },
                    "indices" : 4,
                    "material" : 0
                }
            ]
        },
        {
            "name" : "suzanne.000",
            "primitives" : [
                {
                    "attributes" : {
                        "POSITION" : 5,
                        "NORMAL" : 6,
                        "TEXCOORD_0" : 7,
                        "TEXCOORD_1" : 8
                    },
                    "indices" : 9,
                    "material" : 1
                }
            ]
        },
        {
            "name" : "lamp.000",
            "primitives" : [
                {
                    "attributes" : {
                        "POSITION" : 10,
                        "NORMAL" : 11,
                        "TEXCOORD_0" : 12
                    },
                    "indices" : 13,
                    "material" : 2
                }
            ]
        },
        {
            "name" : "cornellBox.000",
            "primitives" : [
                {
                    "attributes" : {
                        "POSITION" : 14,
                        "NORMAL" : 15,
                        "TEXCOORD_0" : 16,
                        "TEXCOORD_1" : 17
                    },
                    "indices" : 18,
                    "material" : 3
                },
                {
                    "attributes" : {
                        "POSITION" : 19,
                        "NORMAL" : 20,
                        "TEXCOORD_0" : 21,
                        "TEXCOORD_1" : 22
                    },
                    "indices" : 23,
                    "material" : 4
                },
                {
                    "attributes" : {
                        "POSITION" : 24,
                        "NORMAL" : 25,
                        "TEXCOORD_0" : 26,
                        "TEXCOORD_1" : 27
                    },
                    "indices" : 28,
                    "material" : 5
                },
                {
                    "attributes" : {
                        "POSITION" : 29,
                        "NORMAL" : 30,
                        "TEXCOORD_0" : 31,
                        "TEXCOORD_1" : 32
                    },
                    "indices" : 33,
                    "material" : 6
                }
            ]
        }
    ],
    "textures" : [
        {
            "source" : 0
        },
        {
            "source" : 1
        }
    ],
    "images" : [
        {
            "mimeType" : "image/png",
            "name" : "checkerBJS.png",
            "uri" : "checkerBJS.png"
        },
        {
            "mimeType" : "image/png",
            "name" : "checker-meter.png",
            "uri" : "checker-meter.png"
        }
    ],
    "accessors" : [
        {
            "bufferView" : 0,
            "componentType" : 5126,
            "count" : 92,
            "max" : [
                0.30000001192092896,
                1.2999999523162842,
                0.30000001192092896
            ],
            "min" : [
                -0.30000001192092896,
                -0.30000001192092896,
                -0.30000001192092896
            ],
            "type" : "VEC3"
        },
        {
            "bufferView" : 1,
            "componentType" : 5126,
            "count" : 92,
            "type" : "VEC3"
        },
        {
            "bufferView" : 2,
            "componentType" : 5126,
            "count" : 92,
            "type" : "VEC2"
        },
        {
            "bufferView" : 3,
            "componentType" : 5126,
            "count" : 92,
            "type" : "VEC2"
        },
        {
            "bufferView" : 4,
            "componentType" : 5123,
            "count" : 126,
            "type" : "SCALAR"
        },
        {
            "bufferView" : 5,
            "componentType" : 5126,
            "count" : 2149,
            "max" : [
                0.66845703125,
                0.47509765625,
                0.412841796875
            ],
            "min" : [
                -0.66845703125,
                -0.4873046875,
                -0.400390625
            ],
            "type" : "VEC3"
        },
        {
            "bufferView" : 6,
            "componentType" : 5126,
            "count" : 2149,
            "type" : "VEC3"
        },
        {
            "bufferView" : 7,
            "componentType" : 5126,
            "count" : 2149,
            "type" : "VEC2"
        },
        {
            "bufferView" : 8,
            "componentType" : 5126,
            "count" : 2149,
            "type" : "VEC2"
        },
        {
            "bufferView" : 9,
            "componentType" : 5123,
            "count" : 11832,
            "type" : "SCALAR"
        },
        {
            "bufferView" : 10,
            "componentType" : 5126,
            "count" : 20,
            "max" : [
                0.375,
                0,
                0.375
            ],
            "min" : [
                -0.375,
                -0.010000001639127731,
                -0.375
            ],
            "type" : "VEC3"
        },
        {
            "bufferView" : 11,
            "componentType" : 5126,
            "count" : 20,
            "type" : "VEC3"
        },
        {
            "bufferView" : 12,
            "componentType" : 5126,
            "count" : 20,
            "type" : "VEC2"
        },
        {
            "bufferView" : 13,
            "componentType" : 5123,
            "count" : 30,
            "type" : "SCALAR"
        },
        {
            "bufferView" : 14,
            "componentType" : 5126,
            "count" : 8,
            "max" : [
                2,
                3,
                2
            ],
            "min" : [
                -2,
                0,
                -2
            ],
            "type" : "VEC3"
        },
        {
            "bufferView" : 15,
            "componentType" : 5126,
            "count" : 8,
            "type" : "VEC3"
        },
        {
            "bufferView" : 16,
            "componentType" : 5126,
            "count" : 8,
            "type" : "VEC2"
        },
        {
            "bufferView" : 17,
            "componentType" : 5126,
            "count" : 8,
            "type" : "VEC2"
        },
        {
            "bufferView" : 18,
            "componentType" : 5123,
            "count" : 12,
            "type" : "SCALAR"
        },
        {
            "bufferView" : 19,
            "componentType" : 5126,
            "count" : 4,
            "max" : [
                2,
                0,
                2
            ],
            "min" : [
                -2,
                0,
                -2
            ],
            "type" : "VEC3"
        },
        {
            "bufferView" : 20,
            "componentType" : 5126,
            "count" : 4,
            "type" : "VEC3"
        },
        {
            "bufferView" : 21,
            "componentType" : 5126,
            "count" : 4,
            "type" : "VEC2"
        },
        {
            "bufferView" : 22,
            "componentType" : 5126,
            "count" : 4,
            "type" : "VEC2"
        },
        {
            "bufferView" : 23,
            "componentType" : 5123,
            "count" : 6,
            "type" : "SCALAR"
        },
        {
            "bufferView" : 24,
            "componentType" : 5126,
            "count" : 4,
            "max" : [
                -2,
                3,
                2
            ],
            "min" : [
                -2,
                0,
                -2
            ],
            "type" : "VEC3"
        },
        {
            "bufferView" : 25,
            "componentType" : 5126,
            "count" : 4,
            "type" : "VEC3"
        },
        {
            "bufferView" : 26,
            "componentType" : 5126,
            "count" : 4,
            "type" : "VEC2"
        },
        {
            "bufferView" : 27,
            "componentType" : 5126,
            "count" : 4,
            "type" : "VEC2"
        },
        {
            "bufferView" : 28,
            "componentType" : 5123,
            "count" : 6,
            "type" : "SCALAR"
        },
        {
            "bufferView" : 29,
            "componentType" : 5126,
            "count" : 4,
            "max" : [
                2,
                3,
                2
            ],
            "min" : [
                2,
                0,
                -2
            ],
            "type" : "VEC3"
        },
        {
            "bufferView" : 30,
            "componentType" : 5126,
            "count" : 4,
            "type" : "VEC3"
        },
        {
            "bufferView" : 31,
            "componentType" : 5126,
            "count" : 4,
            "type" : "VEC2"
        },
        {
            "bufferView" : 32,
            "componentType" : 5126,
            "count" : 4,
            "type" : "VEC2"
        },
        {
            "bufferView" : 33,
            "componentType" : 5123,
            "count" : 6,
            "type" : "SCALAR"
        }
    ],
    "bufferViews" : [
        {
            "buffer" : 0,
            "byteLength" : 1104,
            "byteOffset" : 0
        },
        {
            "buffer" : 0,
            "byteLength" : 1104,
            "byteOffset" : 1104
        },
        {
            "buffer" : 0,
            "byteLength" : 736,
            "byteOffset" : 2208
        },
        {
            "buffer" : 0,
            "byteLength" : 736,
            "byteOffset" : 2944
        },
        {
            "buffer" : 0,
            "byteLength" : 252,
            "byteOffset" : 3680
        },
        {
            "buffer" : 0,
            "byteLength" : 25788,
            "byteOffset" : 3932
        },
        {
            "buffer" : 0,
            "byteLength" : 25788,
            "byteOffset" : 29720
        },
        {
            "buffer" : 0,
            "byteLength" : 17192,
            "byteOffset" : 55508
        },
        {
            "buffer" : 0,
            "byteLength" : 17192,
            "byteOffset" : 72700
        },
        {
            "buffer" : 0,
            "byteLength" : 23664,
            "byteOffset" : 89892
        },
        {
            "buffer" : 0,
            "byteLength" : 240,
            "byteOffset" : 113556
        },
        {
            "buffer" : 0,
            "byteLength" : 240,
            "byteOffset" : 113796
        },
        {
            "buffer" : 0,
            "byteLength" : 160,
            "byteOffset" : 114036
        },
        {
            "buffer" : 0,
            "byteLength" : 60,
            "byteOffset" : 114196
        },
        {
            "buffer" : 0,
            "byteLength" : 96,
            "byteOffset" : 114256
        },
        {
            "buffer" : 0,
            "byteLength" : 96,
            "byteOffset" : 114352
        },
        {
            "buffer" : 0,
            "byteLength" : 64,
            "byteOffset" : 114448
        },
        {
            "buffer" : 0,
            "byteLength" : 64,
            "byteOffset" : 114512
        },
        {
            "buffer" : 0,
            "byteLength" : 24,
            "byteOffset" : 114576
        },
        {
            "buffer" : 0,
            "byteLength" : 48,
            "byteOffset" : 114600
        },
        {
            "buffer" : 0,
            "byteLength" : 48,
            "byteOffset" : 114648
        },
        {
            "buffer" : 0,
            "byteLength" : 32,
            "byteOffset" : 114696
        },
        {
            "buffer" : 0,
            "byteLength" : 32,
            "byteOffset" : 114728
        },
        {
            "buffer" : 0,
            "byteLength" : 12,
            "byteOffset" : 114760
        },
        {
            "buffer" : 0,
            "byteLength" : 48,
            "byteOffset" : 114772
        },
        {
            "buffer" : 0,
            "byteLength" : 48,
            "byteOffset" : 114820
        },
        {
            "buffer" : 0,
            "byteLength" : 32,
            "byteOffset" : 114868
        },
        {
            "buffer" : 0,
            "byteLength" : 32,
            "byteOffset" : 114900
        },
        {
            "buffer" : 0,
            "byteLength" : 12,
            "byteOffset" : 114932
        },
        {
            "buffer" : 0,
            "byteLength" : 48,
            "byteOffset" : 114944
        },
        {
            "buffer" : 0,
            "byteLength" : 48,
            "byteOffset" : 114992
        },
        {
            "buffer" : 0,
            "byteLength" : 32,
            "byteOffset" : 115040
        },
        {
            "buffer" : 0,
            "byteLength" : 32,
            "byteOffset" : 115072
        },
        {
            "buffer" : 0,
            "byteLength" : 12,
            "byteOffset" : 115104
        }
    ],
    "buffers" : [
        {
            "byteLength" : 115116,
            "uri" : "cornellBox-2.80-Eevee-gltf.bin"
        }
    ]
}
